<?xml version="1.0" encoding="UTF-8" standalone="no"?>
<!-- Created with Inkscape (http://www.inkscape.org/) -->

<svg
   xmlns:dc="http://purl.org/dc/elements/1.1/"
   xmlns:cc="http://creativecommons.org/ns#"
   xmlns:rdf="http://www.w3.org/1999/02/22-rdf-syntax-ns#"
   xmlns:svg="http://www.w3.org/2000/svg"
   xmlns="http://www.w3.org/2000/svg"
   xmlns:sodipodi="http://sodipodi.sourceforge.net/DTD/sodipodi-0.dtd"
   xmlns:inkscape="http://www.inkscape.org/namespaces/inkscape"
   width="425"
   height="125"
   viewBox="0 0 425.00001 125"
   id="svg4376"
   version="1.1"
   inkscape:version="0.91 r13725"
   sodipodi:docname="TDnew.svg">
  <defs
     id="defs4378" />
  <sodipodi:namedview
     id="base"
     pagecolor="#ffffff"
     bordercolor="#666666"
     borderopacity="1.0"
     inkscape:pageopacity="0.0"
     inkscape:pageshadow="2"
     inkscape:zoom="2"
     inkscape:cx="253.99366"
     inkscape:cy="60.750358"
     inkscape:document-units="px"
     inkscape:current-layer="layer1"
     showgrid="false"
     units="px"
     inkscape:window-width="1440"
     inkscape:window-height="812"
     inkscape:window-x="-1"
     inkscape:window-y="0"
     inkscape:window-maximized="0" />
  <metadata
     id="metadata4381">
    <rdf:RDF>
      <cc:Work
         rdf:about="">
        <dc:format>image/svg+xml</dc:format>
        <dc:type
           rdf:resource="http://purl.org/dc/dcmitype/StillImage" />
        <dc:title></dc:title>
      </cc:Work>
    </rdf:RDF>
  </metadata>
  <g
     inkscape:label="Layer 1"
     inkscape:groupmode="layer"
     id="layer1"
     transform="translate(0,-927.36223)">
    <path
       style="fill:none;fill-rule:evenodd;stroke:#000000;stroke-width:1;stroke-linecap:butt;stroke-linejoin:miter;stroke-miterlimit:4;stroke-dasharray:none;stroke-opacity:1"
       d="m 25,962.36223 0,15 15,0 0,49.99997 15,0 0,-49.99997 15,0 0,49.99997 30,0 0,-15 -15,0 0,-10 15,0 0,-14.99997 -15,0 0,-10 30,0 0,24.99997 15,0 0,10 -15,0 0,15 30,0 0,-39.99995 -15,-2e-5 0,-10 30,0 0,24.99997 15,0 0,10 -15,0 0,15 30,0 0,-39.99997 -15,0 0,-10 30,0 0,49.99997 30,0 0,-15 -15,0 0,-10 15,0 0,-14.99995 -15,-2e-5 0,-10 15,0 0,-15 z"
       id="path6737"
       inkscape:connector-curvature="0"
       sodipodi:nodetypes="ccccccccccccccccccccccccccccccccccccccccccccccccc" />
    <path
       style="fill:none;fill-rule:evenodd;stroke:#000000;stroke-width:1px;stroke-linecap:butt;stroke-linejoin:miter;stroke-opacity:1"
       d="M 250 35 L 250 100 L 265 100 C 265 100 295 100.18957 295 67.5 C 295 34.81047 265 35 265 35 L 250 35 z M 265 50 C 274.5 50 280 57.67697 280 67.5 C 280 77.32307 274.125 85 265 85 L 265 50 z "
       transform="translate(0,927.36223)"
       id="path5222" />
    <path
       style="fill:none;fill-rule:evenodd;stroke:#000000;stroke-width:1px;stroke-linecap:butt;stroke-linejoin:miter;stroke-opacity:1"
       d="m 295,962.36223 15,0 7.5,18.5 7.5,-18.5 15,0 -15,32.5 0,32.49997 -15,0 0,-32.49997 z"
       id="path5224"
       inkscape:connector-curvature="0"
       sodipodi:nodetypes="cccccccccc" />
    <path
       style="fill:none;fill-rule:evenodd;stroke:#000000;stroke-width:1px;stroke-linecap:butt;stroke-linejoin:miter;stroke-opacity:1"
       d="m 345,962.36223 0,64.99997 15,0 0,-32.49997 15,32.49997 15,0 0,-64.99997 -15,0 0,32.5 -15,-32.5 z"
       id="path5226"
       inkscape:connector-curvature="0"
       sodipodi:nodetypes="ccccccccccc" />
    <path
       style="fill:none;fill-rule:evenodd;stroke:#000000;stroke-width:1px;stroke-linecap:butt;stroke-linejoin:miter;stroke-opacity:1"
       d="m 243,955.86223 0,79.49997 153.5,0 0,-79.99997 z"
       id="path5247"
       inkscape:connector-curvature="0" />
  </g>
</svg>
