<?xml version="1.0" encoding="UTF-8" standalone="no"?>
<!-- Created with Inkscape (http://www.inkscape.org/) -->

<svg
   xmlns:dc="http://purl.org/dc/elements/1.1/"
   xmlns:cc="http://creativecommons.org/ns#"
   xmlns:rdf="http://www.w3.org/1999/02/22-rdf-syntax-ns#"
   xmlns:svg="http://www.w3.org/2000/svg"
   xmlns="http://www.w3.org/2000/svg"
   xmlns:sodipodi="http://sodipodi.sourceforge.net/DTD/sodipodi-0.dtd"
   xmlns:inkscape="http://www.inkscape.org/namespaces/inkscape"
   width="410"
   height="125"
   viewBox="0 0 410.00001 125"
   id="svg4376"
   version="1.1"
   inkscape:version="0.91 r13725"
   sodipodi:docname="TDnew2.svg"
   inkscape:export-filename="/Users/beng/Coding/TesseDyn/images/TDnew2"
   inkscape:export-xdpi="1000"
   inkscape:export-ydpi="1000">
  <defs
     id="defs4378" />
  <sodipodi:namedview
     id="base"
     pagecolor="#ffffff"
     bordercolor="#666666"
     borderopacity="1.0"
     inkscape:pageopacity="0.0"
     inkscape:pageshadow="2"
     inkscape:zoom="2"
     inkscape:cx="233.99366"
     inkscape:cy="60.750358"
     inkscape:document-units="px"
     inkscape:current-layer="layer1"
     showgrid="false"
     units="px"
     inkscape:window-width="1440"
     inkscape:window-height="812"
     inkscape:window-x="-1"
     inkscape:window-y="0"
     inkscape:window-maximized="0" />
  <metadata
     id="metadata4381">
    <rdf:RDF>
      <cc:Work
         rdf:about="">
        <dc:format>image/svg+xml</dc:format>
        <dc:type
           rdf:resource="http://purl.org/dc/dcmitype/StillImage" />
        <dc:title></dc:title>
      </cc:Work>
    </rdf:RDF>
  </metadata>
  <g
     inkscape:label="Layer 1"
     inkscape:groupmode="layer"
     id="layer1"
     transform="translate(0,-927.36223)">
    <g
       id="g5275">
      <path
         id="path5247"
         transform="translate(0,927.36223)"
         d="m 245,35 0,65 140.80078,0 0,-65 L 245,35 Z m 10,8.646484 12.94336,0 c 0,0 25.88476,-0.138954 25.88476,23.853516 0,23.992499 -25.88476,23.853516 -25.88476,23.853516 l -12.94336,0 0,-47.707032 z m 38.82812,0 12.94336,0 6.47071,13.578125 6.47265,-13.578125 12.94141,0 L 319.71484,67.5 l 0,23.853516 -12.94336,0 0,-23.853516 -12.94336,-23.853516 z m 43.14258,0 12.94336,0 12.94336,23.853516 0,-23.853516 12.94141,0 0,47.707032 -12.94141,0 L 349.91406,67.5 l 0,23.853516 -12.94336,0 0,-47.707032 z m -69.02734,11.009766 0,25.6875 c 7.87355,0 12.94141,-5.634111 12.94141,-12.84375 0,-7.20961 -4.74428,-12.84375 -12.94141,-12.84375 z"
         style="opacity:1;fill:#000000;fill-opacity:1;fill-rule:evenodd;stroke:#000000;stroke-width:1;stroke-linecap:butt;stroke-linejoin:miter;stroke-miterlimit:4;stroke-dasharray:none;stroke-opacity:1"
         inkscape:connector-curvature="0" />
      <path
         sodipodi:nodetypes="ccccccccccccccccccccccccccccccccccccccccccccccccc"
         inkscape:connector-curvature="0"
         id="path6737"
         d="m 25,962.36223 0,15 15,0 0,49.99997 15,0 0,-49.99997 15,0 0,49.99997 30,0 0,-15 -15,0 0,-10 10,0 0,-14.99997 -10,0 0,-10 30,0 0,24.99997 15,0 0,10 -15,0 0,15 30,0 0,-39.99995 -15,-2e-5 0,-10 30,0 0,24.99997 15,0 0,10 -15,0 0,15 30,0 0,-39.99997 -15,0 0,-10 30,0 0,49.99997 30,0 0,-15 -15,0 0,-10 10,0 0,-14.99995 -10,0 0,-10.00002 15,0 0,-15 z"
         style="fill:#000000;fill-opacity:1;fill-rule:evenodd;stroke:#000000;stroke-width:1;stroke-linecap:butt;stroke-linejoin:miter;stroke-miterlimit:4;stroke-dasharray:none;stroke-opacity:1" />
    </g>
    <g
       id="g5250"
       transform="matrix(0.8628554,0,0,0.73394968,39.285901,264.68297)" />
  </g>
</svg>
